<?xml version="1.0" encoding="UTF-8" standalone="no"?>
<!-- Created with Inkscape (http://www.inkscape.org/) -->

<svg
   width="210mm"
   height="297mm"
   viewBox="0 0 210 297"
   version="1.1"
   id="svg5"
   inkscape:version="1.2.2 (732a01da63, 2022-12-09, custom)"
   sodipodi:docname="logo"
   xmlns:inkscape="http://www.inkscape.org/namespaces/inkscape"
   xmlns:sodipodi="http://sodipodi.sourceforge.net/DTD/sodipodi-0.dtd"
   xmlns="http://www.w3.org/2000/svg"
   xmlns:svg="http://www.w3.org/2000/svg">
  <sodipodi:namedview
     id="namedview7"
     pagecolor="#505050"
     bordercolor="#eeeeee"
     borderopacity="1"
     inkscape:showpageshadow="0"
     inkscape:pageopacity="0"
     inkscape:pagecheckerboard="0"
     inkscape:deskcolor="#505050"
     inkscape:document-units="mm"
     showgrid="false"
     inkscape:zoom="2.8284271"
     inkscape:cx="257.03331"
     inkscape:cy="263.92761"
     inkscape:window-width="1910"
     inkscape:window-height="1040"
     inkscape:window-x="2"
     inkscape:window-y="32"
     inkscape:window-maximized="1"
     inkscape:current-layer="layer1" />
  <defs
     id="defs2">
    <rect
       x="276.52495"
       y="191.98918"
       width="65.451723"
       height="66.626014"
       id="rect344" />
  </defs>
  <g
     inkscape:label="Layer 1"
     inkscape:groupmode="layer"
     id="layer1">
    <rect
       style="fill:none;stroke-width:0.365001;stroke-dashoffset:1.30961"
       id="rect234"
       width="38.894173"
       height="38.894173"
       x="52.481644"
       y="43.70042"
       inkscape:export-filename="logo.png"
       inkscape:export-xdpi="96"
       inkscape:export-ydpi="96" />
    <g
       id="g858"
       transform="matrix(1.1901456,0,0,1.1901456,-13.676933,-12.002253)">
      <g
         id="g796">
        <g
           id="g460"
           transform="translate(5.3229147)" />
        <g
           id="g803">
          <g
             aria-label="覚"
             transform="matrix(0.56311125,0,0,0.56311125,-89.86262,-59.06303)"
             id="text342"
             style="font-size:40px;line-height:1.25;font-family:Caladea;-inkscape-font-specification:'Caladea, Normal';white-space:pre;shape-inside:url(#rect344);fill:#f9f9f9">
            <path
               d="m 288.47852,210.89453 h 15.64453 l 1.40625,-1.67969 c 1.67969,1.23698 2.51953,2.0638 2.51953,2.48047 0,0.13021 -0.11068,0.26042 -0.33203,0.39063 l -1.03516,0.60547 v 13.6914 h -2.24609 v -1.60156 h -3.78907 v 6.11328 c 0,0.57292 0.20182,0.91797 0.60547,1.03516 0.57292,0.13021 2.01172,0.19531 4.31641,0.19531 2.13541,0 3.42448,-0.0911 3.86719,-0.27344 0.95052,-0.3776 1.60807,-2.65625 1.97265,-6.83594 l 1.03516,0.41016 c 0,2.8125 0.10417,4.6224 0.3125,5.42969 0.19531,0.58593 0.65104,0.8789 1.36719,0.8789 -0.0391,1.13281 -0.54688,1.84245 -1.52344,2.12891 -0.87239,0.26042 -3.17708,0.39063 -6.91406,0.39063 -3.76302,0 -5.9375,-0.21485 -6.52344,-0.64454 -0.53385,-0.36458 -0.80078,-1.13281 -0.80078,-2.30468 v -6.52344 h -4.00391 c -0.44271,3.59375 -2.09635,6.25 -4.96094,7.96875 -2.2526,1.34115 -5.54687,2.19401 -9.88281,2.55859 l -0.46875,-0.99609 c 7.82552,-1.05469 12.11589,-4.23177 12.8711,-9.53125 h -3.67188 v 1.79687 h -2.32422 v -16.79687 c 1.28907,0.52083 2.14193,0.89193 2.5586,1.11328 z m -0.23438,0.99609 v 3.125 h 16.19141 v -3.125 z m 16.19141,4.1211 h -16.19141 v 3.24219 h 16.19141 z m 0,4.23828 h -16.19141 v 3.53516 h 16.19141 z m -20.625,-13.67188 h 17.22656 c 1.73177,-2.40885 3.13151,-5.01953 4.19922,-7.83203 2.51302,1.06771 3.76953,1.88152 3.76953,2.44141 0,0.35156 -0.65104,0.54687 -1.95313,0.58594 -1.08073,1.35417 -2.59114,2.95573 -4.53125,4.80468 h 7.44141 l 1.48438,-1.83593 c 2.03125,1.78385 3.04687,2.94271 3.04687,3.47656 0,0.20833 -0.1888,0.35156 -0.56641,0.42969 l -1.28906,0.29297 c -1.0026,1.13281 -2.07031,2.14192 -3.20312,3.02734 l -0.78125,-0.54688 c 0.59895,-1.17187 1.11328,-2.45442 1.54297,-3.84765 h -26.34766 c 0,1.66667 -0.33203,3.10547 -0.99609,4.3164 -0.59896,1.14583 -1.3086,1.71875 -2.12891,1.71875 -0.44271,0 -0.84635,-0.20182 -1.21094,-0.60546 -0.20833,-0.29948 -0.3125,-0.57943 -0.3125,-0.83985 0,-0.3776 0.22787,-0.77473 0.6836,-1.1914 1.52343,-1.32813 2.4414,-3.37891 2.7539,-6.15235 l 1.01563,0.19531 c 0.0261,0.27344 0.0586,0.59245 0.0977,0.95704 0.0261,0.32552 0.0456,0.52734 0.0586,0.60546 z m 0.54687,-7.36328 c 3.89323,1.36719 5.83985,2.91667 5.83985,4.64844 0,1.04167 -0.48177,1.5625 -1.44532,1.5625 -0.61198,0 -1.0612,-0.42969 -1.34765,-1.28906 -0.48177,-1.48437 -1.65365,-2.88411 -3.51563,-4.19922 z m 8.16406,-0.39062 c 3.73698,1.48437 5.60547,3.125 5.60547,4.92187 0,1.04167 -0.52083,1.5625 -1.5625,1.5625 -0.58593,0 -0.99609,-0.45573 -1.23047,-1.36718 -0.40364,-1.5625 -1.52343,-3.04037 -3.35937,-4.4336 z"
               id="path516"
               sodipodi:nodetypes="cccsccccccscsccccccscscccccccccccccccccccccccccccccsccccscccccccscscccccccssccccssccc" />
          </g>
          <path
             d="m 79.639932,57.279621 c 0.980606,-1.363996 1.773201,-2.84228 2.377785,-4.43484 1.422985,0.604582 2.134477,1.065398 2.134477,1.382432 0,0.199069 -0.368651,0.309664 -1.10595,0.331786 -0.611957,0.76679 -1.46722,1.673666 -2.565794,2.720622"
             id="path775"
             style="fill:#ff0000;stroke-width:1.00557" />
        </g>
      </g>
      <g
         id="g846">
        <g
           aria-label="$"
           id="text454"
           style="font-size:22.5778px;line-height:1.25;font-family:'Ubuntu Mono';-inkscape-font-specification:'Ubuntu Mono, Normal';stroke-width:0.264583"
           transform="translate(5.3229148)">
          <path
             d="m 55.343407,68.383797 c 0.541867,0 0.993423,-0.03763 1.354668,-0.112889 0.376297,-0.09031 0.669808,-0.210726 0.880534,-0.361245 0.210726,-0.165571 0.361245,-0.353719 0.451556,-0.564445 0.09031,-0.225778 0.135467,-0.466608 0.135467,-0.72249 0,-0.376297 -0.09031,-0.692386 -0.270934,-0.948267 -0.180623,-0.270934 -0.428978,-0.504238 -0.745067,-0.699912 -0.301037,-0.210726 -0.64723,-0.391348 -1.038579,-0.541867 -0.391349,-0.165571 -0.797749,-0.323615 -1.219202,-0.474134 -0.4064,-0.150519 -0.8128,-0.316089 -1.219201,-0.496712 C 53.2813,63.281214 52.927582,63.062962 52.611493,62.80708 52.310456,62.536147 52.0621,62.220057 51.866425,61.858812 c -0.195674,-0.376297 -0.293511,-0.835378 -0.293511,-1.377245 0,-0.96332 0.285985,-1.746017 0.857956,-2.348092 0.571971,-0.602075 1.399824,-0.985897 2.483558,-1.151468 v -2.325513 h 1.670758 v 2.25778 c 0.602075,0.03011 1.151468,0.105366 1.648179,0.225778 0.511763,0.105363 0.918164,0.218252 1.219201,0.338667 l -0.383822,1.580446 C 58.752655,58.93875 58.35378,58.818335 57.87212,58.69792 c -0.481659,-0.135467 -1.09126,-0.2032 -1.828802,-0.2032 -0.812801,0 -1.437453,0.150519 -1.873957,0.451556 -0.421453,0.301037 -0.632179,0.737542 -0.632179,1.309513 0,0.316089 0.06021,0.579496 0.180623,0.790223 0.135467,0.210726 0.323615,0.398874 0.564445,0.564445 0.24083,0.16557 0.519289,0.316089 0.835378,0.451556 0.331141,0.135467 0.699912,0.278459 1.106313,0.428978 0.511763,0.195674 1.008475,0.4064 1.490135,0.632178 0.481659,0.210726 0.903111,0.466608 1.264356,0.767645 0.361245,0.301037 0.647231,0.662282 0.857957,1.083735 0.225778,0.421452 0.338667,0.92569 0.338667,1.512713 0,0.88806 -0.293511,1.640653 -0.880534,2.25778 -0.587023,0.617126 -1.490135,1.000948 -2.709336,1.151467 v 2.596448 h -1.670758 v -2.528714 c -0.948267,-0.03011 -1.715912,-0.13547 -2.302935,-0.316089 -0.587023,-0.180623 -1.023528,-0.353719 -1.309513,-0.51929 l 0.496712,-1.557868 c 0.4064,0.195674 0.88806,0.383822 1.444979,0.564445 0.556919,0.165571 1.256831,0.248356 2.099736,0.248356 z"
             style="fill:#ffffff"
             id="path805"
             sodipodi:nodetypes="scccscccccccssccccccccscscscccscssccccscccs" />
        </g>
        <path
           d="m 60.23486,56.97997 v -2.325513 h 1.670758 v 2.25778"
           style="fill:#ff0000"
           id="path816" />
      </g>
    </g>
    <rect
       style="fill:none;stroke-width:0.365001;stroke-dashoffset:1.30961"
       id="rect876"
       width="38.894173"
       height="38.894173"
       x="52.481644"
       y="43.70042"
       inkscape:export-filename="logo.png"
       inkscape:export-xdpi="96"
       inkscape:export-ydpi="96" />
  </g>
</svg>
